<svg
          width="40"
          height="40"
          viewBox="0 0 40 40"
          fill="none"
          xmlns="http://www.w3.org/2000/svg"
        >
          <rect width="40" height="40" rx="20" fill="#F0F2F5" />
          <path
            fill-rule="evenodd"
            clip-rule="evenodd"
            d="M20.8336 12.5C20.8336 12.0398 20.4606 11.6667 20.0003 11.6667C19.5401 11.6667 19.167 12.0398 19.167 12.5V12.9757C16.3402 13.3799 14.167 15.8102 14.167 18.7491L14.167 22.0827C14.167 22.0827 14.167 22.0826 14.167 22.0827C14.1669 22.0843 14.1663 22.0955 14.1627 22.1174C14.1584 22.1436 14.1507 22.1793 14.138 22.2252C14.1122 22.3183 14.0712 22.4342 14.0139 22.5712C13.899 22.8459 13.737 23.1622 13.5579 23.4813C13.2211 24.0813 13.0513 24.7962 13.1788 25.476C13.3132 26.193 13.7747 26.8182 14.5629 27.1183C15.267 27.3864 16.2042 27.6316 17.4419 27.7775C17.4713 27.803 17.5061 27.8323 17.5461 27.8643C17.6714 27.9644 17.8503 28.0943 18.0764 28.2235C18.5253 28.48 19.1888 28.75 20.0003 28.75C20.8118 28.75 21.4754 28.48 21.9242 28.2235C22.1503 28.0943 22.3292 27.9644 22.4545 27.8643C22.4945 27.8323 22.5293 27.803 22.5588 27.7775C23.7965 27.6316 24.7337 27.3864 25.4378 27.1183C26.2259 26.8182 26.6874 26.193 26.8218 25.476C26.9493 24.7962 26.7795 24.0813 26.4427 23.4813C26.2636 23.1622 26.1016 22.8459 25.9868 22.5712C25.9295 22.4342 25.8884 22.3183 25.8627 22.2252C25.8499 22.1793 25.8422 22.1436 25.8379 22.1174C25.8343 22.0955 25.8337 22.0845 25.8337 22.083C25.8337 22.0828 25.8337 22.083 25.8337 22.083L25.8336 22.0759V18.7495C25.8336 15.8107 23.6605 13.38 20.8336 12.9757V12.5ZM15.8336 18.7491C15.8336 16.4481 17.6989 14.5833 20.0003 14.5833C22.3016 14.5833 24.167 16.4484 24.167 18.7495V22.0833C24.167 22.4691 24.3115 22.8852 24.4491 23.2143C24.5986 23.5717 24.7945 23.95 24.9894 24.2971C25.1789 24.6347 25.2241 24.9537 25.1837 25.1689C25.1503 25.3471 25.0612 25.4783 24.8447 25.5608C23.949 25.9018 22.4369 26.25 20.0003 26.25C17.5637 26.25 16.0517 25.9018 15.1559 25.5608C14.9394 25.4783 14.8503 25.3471 14.8169 25.1689C14.7766 24.9537 14.8217 24.6347 15.0112 24.2971C15.2061 23.95 15.402 23.5717 15.5515 23.2143C15.6891 22.8852 15.8336 22.4691 15.8336 22.0833V18.7491Z"
            fill="#344054"
          />
        </svg>