<svg width="40" height="40" viewBox="0 0 40 40" fill="none" xmlns="http://www.w3.org/2000/svg">
<rect x="0.5" y="0.5" width="39" height="39" rx="19.5" fill="white"/>
<path fill-rule="evenodd" clip-rule="evenodd" d="M14.6391 12.5C12.9975 12.5 11.6667 13.8308 11.6667 15.4724V24.1667C11.6667 26.0076 13.159 27.5 15 27.5H25C26.8409 27.5 28.3333 26.0076 28.3333 24.1667V18.5C28.3333 16.6595 26.8426 15.1667 25.0011 15.1667H20.3329C20.3187 15.1603 20.3014 15.1522 20.282 15.1423C20.2417 15.1218 20.2025 15.0993 20.1714 15.0796C20.1572 15.0707 20.1471 15.0638 20.1409 15.0594C20.0248 14.9556 19.8554 14.7775 19.6206 14.5269L19.5748 14.478C19.3571 14.2456 19.1029 13.9742 18.8415 13.717C18.5642 13.4441 18.2536 13.1617 17.9404 12.943C17.6578 12.7456 17.2363 12.5 16.762 12.5H14.6391ZM18.4044 15.6665C18.6252 15.9022 18.8587 16.151 19.0482 16.318C19.1829 16.4367 19.3749 16.5507 19.5254 16.6274C19.6092 16.6701 19.7066 16.7148 19.8073 16.7509C19.8879 16.7798 20.0505 16.8333 20.2372 16.8333H25.0011C25.9211 16.8333 26.6667 17.579 26.6667 18.5V24.1667C26.6667 25.0871 25.9205 25.8333 25 25.8333H15C14.0795 25.8333 13.3333 25.0871 13.3333 24.1667V15.4724C13.3333 14.7513 13.9179 14.1667 14.6391 14.1667H16.7367C16.7375 14.1672 16.74 14.1683 16.7444 14.17C16.7679 14.1796 16.8453 14.211 16.9861 14.3094C17.1858 14.4488 17.4188 14.6553 17.6724 14.9049C17.9087 15.1374 18.1411 15.3854 18.3631 15.6225L18.4044 15.6665Z" fill="black"/>
<rect x="0.5" y="0.5" width="39" height="39" rx="19.5" stroke="#E4E7EC"/>
</svg>
