<svg width="41" height="40" viewBox="0 0 41 40" fill="none" xmlns="http://www.w3.org/2000/svg">
<rect x="0.833374" y="0.5" width="39" height="39" rx="19.5" fill="white"/>
<path fill-rule="evenodd" clip-rule="evenodd" d="M16.1905 10.8333C14.1823 10.8333 12.5 12.4087 12.5 14.4177V26.4957C12.5 29.0964 15.8261 30.0813 17.3899 28.1453L19.5206 25.5076C19.759 25.2124 20.241 25.2124 20.4794 25.5076L22.6101 28.1453C24.1739 30.0813 27.5 29.0964 27.5 26.4957V14.4177C27.5 12.4087 25.8177 10.8333 23.8095 10.8333H16.1905ZM14.1667 14.4177C14.1667 13.388 15.0428 12.5 16.1905 12.5H23.8095C24.9572 12.5 25.8333 13.388 25.8333 14.4177V26.4957C25.8333 27.3876 24.5698 27.919 23.9066 27.0981L21.7759 24.4603C20.8704 23.3393 19.1296 23.3393 18.2241 24.4603L16.0934 27.0981C15.4302 27.919 14.1667 27.3876 14.1667 26.4957V14.4177Z" fill="#4D4D4D"/>
<rect x="0.833374" y="0.5" width="39" height="39" rx="19.5" stroke="#E4E7EC"/>
</svg>
